<svg width="2268" height="1512" xmlns="http://www.w3.org/2000/svg" xmlns:xlink="http://www.w3.org/1999/xlink" overflow="hidden"><defs><clipPath id="clip0"><rect x="0" y="0" width="2268" height="1512"/></clipPath></defs><g clip-path="url(#clip0)"><rect x="0" y="0" width="2268" height="1511.94" fill="#042F2E"/><path d="M1133.5 0.500003 1133.5 1512.5" stroke="#FFFFFF" stroke-width="0.666765" stroke-miterlimit="8" fill="none" fill-rule="evenodd"/><path d="M251.002 296.989 589.33 296.989 589.33 300.989 251.002 300.989ZM251.002 298.989 259.003 308.99 239 298.989 259.003 288.988ZM589.33 298.989 581.329 288.988 601.332 298.989 581.329 308.99Z" fill="#FFFFFF"/><path d="M0 0 0.000104998 109.957" stroke="#FFFFFF" stroke-width="4.00044" stroke-miterlimit="8" fill="none" fill-rule="evenodd" transform="matrix(1.00004 0 0 -1 239 391.947)"/><path d="M0 0 0.000104998 109.957" stroke="#FFFFFF" stroke-width="4.00044" stroke-miterlimit="8" fill="none" fill-rule="evenodd" transform="matrix(1.00004 0 0 -1 601 391.947)"/><path d="M1218 409.986 1218 697.416 1214 697.416 1214 409.986ZM1216 409.987 1206 417.988 1216 397.985 1226 417.988ZM1216 697.416 1226 689.415 1216 709.417 1206 689.415Z" fill="#FFFFFF"/><path d="M1200 398.985 1317.48 398.985" stroke="#FFFFFF" stroke-width="4.00059" stroke-miterlimit="8" fill="none" fill-rule="evenodd"/><path d="M1198 710.974 1319.07 710.974" stroke="#FFFFFF" stroke-width="4.00059" stroke-miterlimit="8" fill="none" fill-rule="evenodd"/><path d="M1333 299.989 1672.02 299.989 1672.02 303.989 1333 303.989ZM1333 301.989 1341 311.99 1321 301.989 1341 291.988ZM1672.02 301.989 1664.02 291.988 1684.03 301.989 1664.02 311.99Z" fill="#FFFFFF"/><path d="M0 0 0.000104998 109.957" stroke="#FFFFFF" stroke-width="4.00044" stroke-miterlimit="8" fill="none" fill-rule="evenodd" transform="matrix(1.00004 0 0 -1 1321 394.946)"/><path d="M0 0 0.000104998 109.957" stroke="#FFFFFF" stroke-width="4.00044" stroke-miterlimit="8" fill="none" fill-rule="evenodd" transform="matrix(1.00004 0 0 -1 1684 394.946)"/><path d="M1784 944.967 1784 1030.95 1780 1030.95 1780 944.967ZM1782 944.967 1772 952.968 1782 932.966 1792 952.968ZM1782 1030.95 1792 1022.95 1782 1042.96 1772 1022.95Z" fill="#FFFFFF"/><path d="M1691 932.966 1795.84 932.966" stroke="#FFFFFF" stroke-width="4.00059" stroke-miterlimit="8" fill="none" fill-rule="evenodd"/><path d="M1692 1042.96 1796.78 1042.96" stroke="#FFFFFF" stroke-width="4.00059" stroke-miterlimit="8" fill="none" fill-rule="evenodd"/><path d="M829 408.987 829 747.976 825 747.976 825 408.987ZM827 408.987 816.999 416.988 827 396.985 837.001 416.988ZM827 747.976 837.002 739.975 827 759.978 816.999 739.975Z" fill="#FFFFFF"/><path d="M815 760.972 892.499 761.195" stroke="#FFFFFF" stroke-width="4.00059" stroke-miterlimit="8" fill="none" fill-rule="evenodd"/><path d="M0 0 79.148 0.677765" stroke="#FFFFFF" stroke-width="4.00044" stroke-miterlimit="8" fill="none" fill-rule="evenodd" transform="matrix(1.00004 0 0 -1 813 397.663)"/><path d="M1007 763.972 1007 853.965" stroke="#FFFFFF" stroke-width="4.00044" stroke-miterlimit="8" fill="none" fill-rule="evenodd"/><path d="M12.0013-2.00021 97.9836-2.00013 97.9836 2.00031 12.0013 2.00023ZM12.0013 1.14572e-05 20.0022 10.0011 0 0 20.0022-10.0011ZM97.9835 9.35412e-05 89.9826-10.001 109.985 0.000104998 89.9826 10.0012Z" fill="#FFFFFF" transform="matrix(-1.00004 0 0 1 1006.99 840.969)"/><path d="M896 763.972 896 853.965" stroke="#FFFFFF" stroke-width="4.00044" stroke-miterlimit="8" fill="none" fill-rule="evenodd"/><path d="M1463.5 402.485 1463.5 509.037" stroke="#FFFF00" stroke-width="1.33353" stroke-miterlimit="8" stroke-dasharray="5.33412 4.00059" fill="none" fill-rule="evenodd"/><path d="M0 0 0.000104998 107.139" stroke="#FFFF00" stroke-width="1.33348" stroke-miterlimit="8" stroke-dasharray="5.33392 4.00044" fill="none" fill-rule="evenodd" transform="matrix(1.00004 0 0 -1 1518.5 509.624)"/><path d="M0 0 0.000104998 107.139" stroke="#FFFF00" stroke-width="1.33348" stroke-miterlimit="8" stroke-dasharray="5.33392 4.00044" fill="none" fill-rule="evenodd" transform="matrix(1.00004 0 0 -1 1503.5 509.624)"/><path d="M0 0 0.000104998 107.139" stroke="#FFFF00" stroke-width="1.33348" stroke-miterlimit="8" stroke-dasharray="5.33392 4.00044" fill="none" fill-rule="evenodd" transform="matrix(1.00004 0 0 -1 1556.5 508.624)"/><path d="M0 0 0.000104998 107.139" stroke="#FFFF00" stroke-width="1.33348" stroke-miterlimit="8" stroke-dasharray="5.33392 4.00044" fill="none" fill-rule="evenodd" transform="matrix(1.00004 0 0 -1 1574.5 509.624)"/><path d="M0 0 0.000104998 107.139" stroke="#FFFF00" stroke-width="1.33348" stroke-miterlimit="8" stroke-dasharray="5.33392 4.00044" fill="none" fill-rule="evenodd" transform="matrix(1.00004 0 0 -1 1612.5 509.624)"/><path d="M0 0 0.000104998 107.139" stroke="#FFFF00" stroke-width="1.33348" stroke-miterlimit="8" stroke-dasharray="5.33392 4.00044" fill="none" fill-rule="evenodd" transform="matrix(1.00004 0 0 -1 1627.5 509.624)"/><path d="M0 0 0.000104998 107.139" stroke="#FFFF00" stroke-width="1.33348" stroke-miterlimit="8" stroke-dasharray="5.33392 4.00044" fill="none" fill-rule="evenodd" transform="matrix(1.00004 0 0 -1 1667.5 509.624)"/><path d="M1482.5 371.486 1482.5 538.156" stroke="#FF0000" stroke-width="1.33353" stroke-miterlimit="8" stroke-dasharray="10.6682 4.00059 1.33353 4.00059" fill="none" fill-rule="evenodd"/><path d="M1538.5 371.486 1538.5 538.156" stroke="#FF0000" stroke-width="1.33353" stroke-miterlimit="8" stroke-dasharray="10.6682 4.00059 1.33353 4.00059" fill="none" fill-rule="evenodd"/><path d="M1594.5 371.486 1594.5 538.156" stroke="#FF0000" stroke-width="1.33353" stroke-miterlimit="8" stroke-dasharray="10.6682 4.00059 1.33353 4.00059" fill="none" fill-rule="evenodd"/><path d="M1648.5 371.486 1648.5 538.156" stroke="#FF0000" stroke-width="1.33353" stroke-miterlimit="8" stroke-dasharray="10.6682 4.00059 1.33353 4.00059" fill="none" fill-rule="evenodd"/><path d="M1321.5 397.485 1321.5 712.4" stroke="#5EEAD4" stroke-width="3.00044" stroke-miterlimit="8" fill="none" fill-rule="evenodd"/><path d="M0 0 0.000104998 203.519" stroke="#5EEAD4" stroke-width="3.00033" stroke-miterlimit="8" fill="none" fill-rule="evenodd" transform="matrix(1.00004 0 0 -1 1432.5 712)"/><path d="M0 0 113.443 0.000104998" stroke="#5EEAD4" stroke-width="3.00033" stroke-miterlimit="8" fill="none" fill-rule="evenodd" transform="matrix(-1.00004 0 0 1 1433.95 712.474)"/><path d="M1320.5 399.485 1685.48 399.485" stroke="#5EEAD4" stroke-width="3.00044" stroke-miterlimit="8" fill="none" fill-rule="evenodd"/><path d="M1685.5 398.485 1685.5 508.93" stroke="#5EEAD4" stroke-width="3.00044" stroke-miterlimit="8" fill="none" fill-rule="evenodd"/><path d="M0 0 252.401 0.000104998" stroke="#5EEAD4" stroke-width="3.00033" stroke-miterlimit="8" fill="none" fill-rule="evenodd" transform="matrix(-1.00004 0 0 1 1684.91 508.481)"/><rect x="1321.5" y="933.466" width="364" height="111.996" stroke="#5EEAD4" stroke-width="3.00044" stroke-miterlimit="8" fill="none"/><path d="M0 0 0.000104998 110.123" stroke="#FFFF00" stroke-width="1.33348" stroke-miterlimit="8" stroke-dasharray="5.33392 4.00044" fill="none" fill-rule="evenodd" transform="matrix(1.00004 0 0 -1 1430.5 1043.59)"/><path d="M0 0 0.000104998 107.139" stroke="#FFFF00" stroke-width="1.33348" stroke-miterlimit="8" stroke-dasharray="5.33392 4.00044" fill="none" fill-rule="evenodd" transform="matrix(-1.83704e-16 -1 -1.00004 1.83697e-16 1429.64 1009.46)"/><path d="M0 0 0.000104998 107.139" stroke="#FFFF00" stroke-width="1.33348" stroke-miterlimit="8" stroke-dasharray="5.33392 4.00044" fill="none" fill-rule="evenodd" transform="matrix(-1.83704e-16 -1 -1.00004 1.83697e-16 1429.64 969.464)"/><path d="M1291.5 989.464 1458.18 989.464" stroke="#FF0000" stroke-width="1.33348" stroke-miterlimit="8" stroke-dasharray="10.6678 4.00044 1.33348 4.00044" fill="none" fill-rule="evenodd"/><path d="M1538.5 962.465 1538.5 1018.97" stroke="#FF0000" stroke-width="1.33353" stroke-miterlimit="8" stroke-dasharray="5.33412 4.00059 1.33353 4.00059" fill="none" fill-rule="evenodd"/><path d="M1511.5 990.464 1566.61 990.464" stroke="#FF0000" stroke-width="1.33353" stroke-miterlimit="8" stroke-dasharray="5.33412 4.00059 1.33353 4.00059" fill="none" fill-rule="evenodd"/><path d="M1481.5 961.465 1481.5 1017.97" stroke="#FF0000" stroke-width="1.33353" stroke-miterlimit="8" stroke-dasharray="5.33412 4.00059 1.33353 4.00059" fill="none" fill-rule="evenodd"/><path d="M1455.5 989.464 1510.61 989.464" stroke="#FF0000" stroke-width="1.33353" stroke-miterlimit="8" stroke-dasharray="5.33412 4.00059 1.33353 4.00059" fill="none" fill-rule="evenodd"/><path d="M1594.5 962.465 1594.5 1018.97" stroke="#FF0000" stroke-width="1.33353" stroke-miterlimit="8" stroke-dasharray="5.33412 4.00059 1.33353 4.00059" fill="none" fill-rule="evenodd"/><path d="M1567.5 990.464 1622.61 990.464" stroke="#FF0000" stroke-width="1.33353" stroke-miterlimit="8" stroke-dasharray="5.33412 4.00059 1.33353 4.00059" fill="none" fill-rule="evenodd"/><path d="M1649.5 962.465 1649.5 1018.97" stroke="#FF0000" stroke-width="1.33353" stroke-miterlimit="8" stroke-dasharray="5.33412 4.00059 1.33353 4.00059" fill="none" fill-rule="evenodd"/><path d="M1623.5 990.464 1678.61 990.464" stroke="#FF0000" stroke-width="1.33353" stroke-miterlimit="8" stroke-dasharray="5.33412 4.00059 1.33353 4.00059" fill="none" fill-rule="evenodd"/><path d="M1463.5 989.464C1463.5 978.971 1472.01 970.464 1482.5 970.464 1492.99 970.464 1501.5 978.971 1501.5 989.464 1501.5 999.957 1492.99 1008.46 1482.5 1008.46 1472.01 1008.46 1463.5 999.957 1463.5 989.464Z" stroke="#2DD4BF" stroke-width="3.00044" stroke-miterlimit="8" fill="none" fill-rule="evenodd"/><path d="M1519.5 989.464C1519.5 978.971 1528.23 970.464 1539 970.464 1549.77 970.464 1558.5 978.971 1558.5 989.464 1558.5 999.957 1549.77 1008.46 1539 1008.46 1528.23 1008.46 1519.5 999.957 1519.5 989.464Z" stroke="#2DD4BF" stroke-width="3.00044" stroke-miterlimit="8" fill="none" fill-rule="evenodd"/><path d="M1574.5 989.464C1574.5 978.971 1583.23 970.464 1594 970.464 1604.77 970.464 1613.5 978.971 1613.5 989.464 1613.5 999.957 1604.77 1008.46 1594 1008.46 1583.23 1008.46 1574.5 999.957 1574.5 989.464Z" stroke="#2DD4BF" stroke-width="3.00044" stroke-miterlimit="8" fill="none" fill-rule="evenodd"/><path d="M1629.5 990.964C1629.5 980.194 1638.23 971.464 1649 971.464 1659.77 971.464 1668.5 980.194 1668.5 990.964 1668.5 1001.73 1659.77 1010.46 1649 1010.46 1638.23 1010.46 1629.5 1001.73 1629.5 990.964Z" stroke="#2DD4BF" stroke-width="3.00044" stroke-miterlimit="8" fill="none" fill-rule="evenodd"/><path d="M1430.06 528.481 1323.5 528.481" stroke="#FFFF00" stroke-width="1.33348" stroke-miterlimit="8" stroke-dasharray="5.33392 4.00044" fill="none" fill-rule="evenodd"/><path d="M0 0 0.000104998 107.139" stroke="#FFFF00" stroke-width="1.33348" stroke-miterlimit="8" stroke-dasharray="5.33392 4.00044" fill="none" fill-rule="evenodd" transform="matrix(6.12346e-17 1 1.00004 -6.12323e-17 1323.5 583.479)"/><path d="M0 0 0.000104998 107.139" stroke="#FFFF00" stroke-width="1.33348" stroke-miterlimit="8" stroke-dasharray="5.33392 4.00044" fill="none" fill-rule="evenodd" transform="matrix(6.12346e-17 1 1.00004 -6.12323e-17 1323.5 568.479)"/><path d="M0 0 0.000104998 107.139" stroke="#FFFF00" stroke-width="1.33348" stroke-miterlimit="8" stroke-dasharray="5.33392 4.00044" fill="none" fill-rule="evenodd" transform="matrix(6.12346e-17 1 1.00004 -6.12323e-17 1323.5 621.477)"/><path d="M0 0 0.000104998 107.139" stroke="#FFFF00" stroke-width="1.33348" stroke-miterlimit="8" stroke-dasharray="5.33392 4.00044" fill="none" fill-rule="evenodd" transform="matrix(6.12346e-17 1 1.00004 -6.12323e-17 1323.5 640.477)"/><path d="M0 0 0.000104998 107.139" stroke="#FFFF00" stroke-width="1.33348" stroke-miterlimit="8" stroke-dasharray="5.33392 4.00044" fill="none" fill-rule="evenodd" transform="matrix(6.12346e-17 1 1.00004 -6.12323e-17 1323.5 678.475)"/><path d="M1461.18 548.48 1294.5 548.48" stroke="#FF0000" stroke-width="1.33348" stroke-miterlimit="8" stroke-dasharray="10.6678 4.00044 1.33348 4.00044" fill="none" fill-rule="evenodd"/><path d="M1461.18 605.478 1294.5 605.478" stroke="#FF0000" stroke-width="1.33348" stroke-miterlimit="8" stroke-dasharray="10.6678 4.00044 1.33348 4.00044" fill="none" fill-rule="evenodd"/><path d="M1461.18 660.476 1294.5 660.476" stroke="#FF0000" stroke-width="1.33348" stroke-miterlimit="8" stroke-dasharray="10.6678 4.00044 1.33348 4.00044" fill="none" fill-rule="evenodd"/><rect x="2061.5" y="398.485" width="111" height="314.988" stroke="#5EEAD4" stroke-width="3.00033" stroke-miterlimit="8" fill="none"/><path d="M0 0 0.000104998 110.123" stroke="#FFFF00" stroke-width="1.33348" stroke-miterlimit="8" stroke-dasharray="5.33392 4.00044" fill="none" fill-rule="evenodd" transform="matrix(6.12346e-17 1 1.00004 -6.12323e-17 2062.5 507.481)"/><path d="M0 0 0.000104998 107.139" stroke="#FFFF00" stroke-width="1.33348" stroke-miterlimit="8" stroke-dasharray="5.33392 4.00044" fill="none" fill-rule="evenodd" transform="matrix(-1.00004 1.22465e-16 1.22469e-16 1 2136.5 397.485)"/><path d="M0 0 0.000104998 107.139" stroke="#FFFF00" stroke-width="1.33348" stroke-miterlimit="8" stroke-dasharray="5.33392 4.00044" fill="none" fill-rule="evenodd" transform="matrix(-1.00004 1.22465e-16 1.22469e-16 1 2096.5 397.485)"/><path d="M2116.5 535.156 2116.5 368.486" stroke="#FF0000" stroke-width="1.33353" stroke-miterlimit="8" stroke-dasharray="10.6682 4.00059 1.33353 4.00059" fill="none" fill-rule="evenodd"/><path d="M2144.01 615.477 2087.5 615.478" stroke="#FF0000" stroke-width="1.33348" stroke-miterlimit="8" stroke-dasharray="5.33392 4.00044 1.33348 4.00044" fill="none" fill-rule="evenodd"/><path d="M2116.5 588.478 2116.5 643.588" stroke="#FF0000" stroke-width="1.33348" stroke-miterlimit="8" stroke-dasharray="5.33392 4.00044 1.33348 4.00044" fill="none" fill-rule="evenodd"/><path d="M2145.01 558.479 2088.5 558.48" stroke="#FF0000" stroke-width="1.33348" stroke-miterlimit="8" stroke-dasharray="5.33392 4.00044 1.33348 4.00044" fill="none" fill-rule="evenodd"/><path d="M2117.5 532.48 2117.5 587.59" stroke="#FF0000" stroke-width="1.33348" stroke-miterlimit="8" stroke-dasharray="5.33392 4.00044 1.33348 4.00044" fill="none" fill-rule="evenodd"/><path d="M2144.01 670.475 2087.5 670.476" stroke="#FF0000" stroke-width="1.33348" stroke-miterlimit="8" stroke-dasharray="5.33392 4.00044 1.33348 4.00044" fill="none" fill-rule="evenodd"/><path d="M2116.5 644.476 2116.5 699.586" stroke="#FF0000" stroke-width="1.33348" stroke-miterlimit="8" stroke-dasharray="5.33392 4.00044 1.33348 4.00044" fill="none" fill-rule="evenodd"/><path d="M2117 539.48C2127.77 539.48 2136.5 548.21 2136.5 558.979 2136.5 569.749 2127.77 578.479 2117 578.479 2106.23 578.479 2097.5 569.749 2097.5 558.979 2097.5 548.21 2106.23 539.48 2117 539.48Z" stroke="#2DD4BF" stroke-width="3.00033" stroke-miterlimit="8" fill="none" fill-rule="evenodd"/><path d="M2117 596.478C2127.77 596.478 2136.5 605.208 2136.5 615.977 2136.5 626.747 2127.77 635.477 2117 635.477 2106.23 635.477 2097.5 626.747 2097.5 615.977 2097.5 605.208 2106.23 596.478 2117 596.478Z" stroke="#2DD4BF" stroke-width="3.00033" stroke-miterlimit="8" fill="none" fill-rule="evenodd"/><path d="M2117 651.476C2127.77 651.476 2136.5 660.206 2136.5 670.975 2136.5 681.745 2127.77 690.475 2117 690.475 2106.23 690.475 2097.5 681.745 2097.5 670.975 2097.5 660.206 2106.23 651.476 2117 651.476Z" stroke="#2DD4BF" stroke-width="3.00033" stroke-miterlimit="8" fill="none" fill-rule="evenodd"/><rect x="238.5" y="929.466" width="364" height="110.996" stroke="#5EEAD4" stroke-width="3.00044" stroke-miterlimit="8" fill="none"/><path d="M0 0 0.000104998 110.123" stroke="#FFFF00" stroke-width="1.33348" stroke-miterlimit="8" stroke-dasharray="5.33392 4.00044" fill="none" fill-rule="evenodd" transform="matrix(1.00004 0 0 -1 347.5 1039.59)"/><path d="M380.5 398.485 380.5 505.037" stroke="#FFFF00" stroke-width="1.33353" stroke-miterlimit="8" stroke-dasharray="5.33412 4.00059" fill="none" fill-rule="evenodd"/><path d="M0 0 0.000104998 107.139" stroke="#FFFF00" stroke-width="1.33348" stroke-miterlimit="8" stroke-dasharray="5.33392 4.00044" fill="none" fill-rule="evenodd" transform="matrix(1.00004 0 0 -1 435.5 504.624)"/><path d="M0 0 0.000104998 107.139" stroke="#FFFF00" stroke-width="1.33348" stroke-miterlimit="8" stroke-dasharray="5.33392 4.00044" fill="none" fill-rule="evenodd" transform="matrix(1.00004 0 0 -1 420.5 504.624)"/><path d="M0 0 0.000104998 107.139" stroke="#FFFF00" stroke-width="1.33348" stroke-miterlimit="8" stroke-dasharray="5.33392 4.00044" fill="none" fill-rule="evenodd" transform="matrix(1.00004 0 0 -1 473.5 503.624)"/><path d="M0 0 0.000104998 107.139" stroke="#FFFF00" stroke-width="1.33348" stroke-miterlimit="8" stroke-dasharray="5.33392 4.00044" fill="none" fill-rule="evenodd" transform="matrix(1.00004 0 0 -1 491.5 504.624)"/><path d="M0 0 0.000104998 107.139" stroke="#FFFF00" stroke-width="1.33348" stroke-miterlimit="8" stroke-dasharray="5.33392 4.00044" fill="none" fill-rule="evenodd" transform="matrix(1.00004 0 0 -1 529.5 504.624)"/><path d="M0 0 0.000104998 107.139" stroke="#FFFF00" stroke-width="1.33348" stroke-miterlimit="8" stroke-dasharray="5.33392 4.00044" fill="none" fill-rule="evenodd" transform="matrix(1.00004 0 0 -1 544.5 504.624)"/><path d="M0 0 0.000104998 107.139" stroke="#FFFF00" stroke-width="1.33348" stroke-miterlimit="8" stroke-dasharray="5.33392 4.00044" fill="none" fill-rule="evenodd" transform="matrix(1.00004 0 0 -1 584.5 504.624)"/><path d="M399.5 366.486 399.5 533.156" stroke="#FF0000" stroke-width="1.33353" stroke-miterlimit="8" stroke-dasharray="10.6682 4.00059 1.33353 4.00059" fill="none" fill-rule="evenodd"/><path d="M454.5 366.486 454.5 533.156" stroke="#FF0000" stroke-width="1.33353" stroke-miterlimit="8" stroke-dasharray="10.6682 4.00059 1.33353 4.00059" fill="none" fill-rule="evenodd"/><path d="M510.5 366.486 510.5 533.156" stroke="#FF0000" stroke-width="1.33353" stroke-miterlimit="8" stroke-dasharray="10.6682 4.00059 1.33353 4.00059" fill="none" fill-rule="evenodd"/><path d="M564.5 366.486 564.5 533.156" stroke="#FF0000" stroke-width="1.33353" stroke-miterlimit="8" stroke-dasharray="10.6682 4.00059 1.33353 4.00059" fill="none" fill-rule="evenodd"/><path d="M455.5 957.465 455.5 1013.97" stroke="#FF0000" stroke-width="1.33353" stroke-miterlimit="8" stroke-dasharray="5.33412 4.00059 1.33353 4.00059" fill="none" fill-rule="evenodd"/><path d="M428.5 985.464 483.612 985.464" stroke="#FF0000" stroke-width="1.33353" stroke-miterlimit="8" stroke-dasharray="5.33412 4.00059 1.33353 4.00059" fill="none" fill-rule="evenodd"/><path d="M398.5 956.465 398.5 1012.97" stroke="#FF0000" stroke-width="1.33353" stroke-miterlimit="8" stroke-dasharray="5.33412 4.00059 1.33353 4.00059" fill="none" fill-rule="evenodd"/><path d="M372.5 984.464 427.612 984.464" stroke="#FF0000" stroke-width="1.33353" stroke-miterlimit="8" stroke-dasharray="5.33412 4.00059 1.33353 4.00059" fill="none" fill-rule="evenodd"/><path d="M510.5 957.465 510.5 1013.97" stroke="#FF0000" stroke-width="1.33353" stroke-miterlimit="8" stroke-dasharray="5.33412 4.00059 1.33353 4.00059" fill="none" fill-rule="evenodd"/><path d="M484.5 985.464 539.612 985.464" stroke="#FF0000" stroke-width="1.33353" stroke-miterlimit="8" stroke-dasharray="5.33412 4.00059 1.33353 4.00059" fill="none" fill-rule="evenodd"/><path d="M566.5 957.465 566.5 1013.97" stroke="#FF0000" stroke-width="1.33353" stroke-miterlimit="8" stroke-dasharray="5.33412 4.00059 1.33353 4.00059" fill="none" fill-rule="evenodd"/><path d="M539.5 985.464 594.612 985.464" stroke="#FF0000" stroke-width="1.33353" stroke-miterlimit="8" stroke-dasharray="5.33412 4.00059 1.33353 4.00059" fill="none" fill-rule="evenodd"/><path d="M292.5 680.475 292.5 736.983" stroke="#FF0000" stroke-width="1.33353" stroke-miterlimit="8" stroke-dasharray="5.33412 4.00059 1.33353 4.00059" fill="none" fill-rule="evenodd"/><path d="M266.5 709.474 321.612 709.474" stroke="#FF0000" stroke-width="1.33353" stroke-miterlimit="8" stroke-dasharray="5.33412 4.00059 1.33353 4.00059" fill="none" fill-rule="evenodd"/><path d="M292.5 569.479 292.5 625.987" stroke="#FF0000" stroke-width="1.33353" stroke-miterlimit="8" stroke-dasharray="5.33412 4.00059 1.33353 4.00059" fill="none" fill-rule="evenodd"/><path d="M266.5 598.478 321.612 598.478" stroke="#FF0000" stroke-width="1.33353" stroke-miterlimit="8" stroke-dasharray="5.33412 4.00059 1.33353 4.00059" fill="none" fill-rule="evenodd"/><path d="M238.5 392.486 238.5 756.45" stroke="#5EEAD4" stroke-width="3.00044" stroke-miterlimit="8" fill="none" fill-rule="evenodd"/><path d="M0 0 0.000104998 253.548" stroke="#5EEAD4" stroke-width="3.00033" stroke-miterlimit="8" fill="none" fill-rule="evenodd" transform="matrix(1.00004 0 0 -1 349.5 758.03)"/><path d="M0 0 110.612 0.000104998" stroke="#5EEAD4" stroke-width="3.00033" stroke-miterlimit="8" fill="none" fill-rule="evenodd" transform="matrix(-1.00004 0 0 1 349.116 756.472)"/><path d="M0 0 363.992 0.0366445" stroke="#5EEAD4" stroke-width="3.00033" stroke-miterlimit="8" fill="none" fill-rule="evenodd" transform="matrix(1.00004 0 0 -1 237.5 394.522)"/><path d="M602.5 393.486 602.5 503.93" stroke="#5EEAD4" stroke-width="3.00044" stroke-miterlimit="8" fill="none" fill-rule="evenodd"/><path d="M0 0 252.401 0.000104998" stroke="#5EEAD4" stroke-width="3.00033" stroke-miterlimit="8" fill="none" fill-rule="evenodd" transform="matrix(-1.00004 0 0 1 601.911 504.481)"/><path d="M272.5 597.978C272.5 587.209 281.23 578.479 292 578.479 302.77 578.479 311.5 587.209 311.5 597.978 311.5 608.747 302.77 617.477 292 617.477 281.23 617.477 272.5 608.747 272.5 597.978Z" stroke="#2DD4BF" stroke-width="3.00044" stroke-miterlimit="8" fill="none" fill-rule="evenodd"/><path d="M273.5 708.974C273.5 698.205 282.007 689.475 292.5 689.475 302.993 689.475 311.5 698.205 311.5 708.974 311.5 719.743 302.993 728.473 292.5 728.473 282.007 728.473 273.5 719.743 273.5 708.974Z" stroke="#2DD4BF" stroke-width="3.00044" stroke-miterlimit="8" fill="none" fill-rule="evenodd"/><path d="M379.5 984.964C379.5 974.195 388.23 965.465 399 965.465 409.77 965.465 418.5 974.195 418.5 984.964 418.5 995.733 409.77 1004.46 399 1004.46 388.23 1004.46 379.5 995.733 379.5 984.964Z" stroke="#2DD4BF" stroke-width="3.00044" stroke-miterlimit="8" fill="none" fill-rule="evenodd"/><path d="M436.5 984.964C436.5 974.195 445.23 965.465 456 965.465 466.77 965.465 475.5 974.195 475.5 984.964 475.5 995.733 466.77 1004.46 456 1004.46 445.23 1004.46 436.5 995.733 436.5 984.964Z" stroke="#2DD4BF" stroke-width="3.00044" stroke-miterlimit="8" fill="none" fill-rule="evenodd"/><path d="M491.5 984.964C491.5 974.195 500.23 965.465 511 965.465 521.77 965.465 530.5 974.195 530.5 984.964 530.5 995.733 521.77 1004.46 511 1004.46 500.23 1004.46 491.5 995.733 491.5 984.964Z" stroke="#2DD4BF" stroke-width="3.00044" stroke-miterlimit="8" fill="none" fill-rule="evenodd"/><path d="M546.5 986.464C546.5 975.971 555.23 967.464 566 967.464 576.77 967.464 585.5 975.971 585.5 986.464 585.5 996.957 576.77 1005.46 566 1005.46 555.23 1005.46 546.5 996.957 546.5 986.464Z" stroke="#2DD4BF" stroke-width="3.00044" stroke-miterlimit="8" fill="none" fill-rule="evenodd"/><rect x="896.5" y="396.485" width="111" height="363.987" stroke="#5EEAD4" stroke-width="3.00033" stroke-miterlimit="8" fill="none"/><path d="M901.5 728.473 1008.06 728.473" stroke="#FFFF00" stroke-width="1.33348" stroke-miterlimit="8" stroke-dasharray="5.33392 4.00044" fill="none" fill-rule="evenodd"/><path d="M0 0 0.000104998 107.139" stroke="#FFFF00" stroke-width="1.33348" stroke-miterlimit="8" stroke-dasharray="5.33392 4.00044" fill="none" fill-rule="evenodd" transform="matrix(-1.83704e-16 -1 -1.00004 1.83697e-16 1008.64 673.475)"/><path d="M0 0 0.000104998 107.139" stroke="#FFFF00" stroke-width="1.33348" stroke-miterlimit="8" stroke-dasharray="5.33392 4.00044" fill="none" fill-rule="evenodd" transform="matrix(-1.83704e-16 -1 -1.00004 1.83697e-16 1008.64 688.475)"/><path d="M0 0 0.000104998 107.139" stroke="#FFFF00" stroke-width="1.33348" stroke-miterlimit="8" stroke-dasharray="5.33392 4.00044" fill="none" fill-rule="evenodd" transform="matrix(-1.83704e-16 -1 -1.00004 1.83697e-16 1007.64 635.477)"/><path d="M0 0 0.000104998 107.139" stroke="#FFFF00" stroke-width="1.33348" stroke-miterlimit="8" stroke-dasharray="5.33392 4.00044" fill="none" fill-rule="evenodd" transform="matrix(-1.83704e-16 -1 -1.00004 1.83697e-16 1008.64 617.477)"/><path d="M0 0 0.000104998 107.139" stroke="#FFFF00" stroke-width="1.33348" stroke-miterlimit="8" stroke-dasharray="5.33392 4.00044" fill="none" fill-rule="evenodd" transform="matrix(-1.83704e-16 -1 -1.00004 1.83697e-16 1008.64 579.479)"/><path d="M0 0 0.000104998 107.139" stroke="#FFFF00" stroke-width="1.33348" stroke-miterlimit="8" stroke-dasharray="5.33392 4.00044" fill="none" fill-rule="evenodd" transform="matrix(-1.83704e-16 -1 -1.00004 1.83697e-16 1008.64 563.479)"/><path d="M0 0 0.000104998 107.139" stroke="#FFFF00" stroke-width="1.33348" stroke-miterlimit="8" stroke-dasharray="5.33392 4.00044" fill="none" fill-rule="evenodd" transform="matrix(-1.83704e-16 -1 -1.00004 1.83697e-16 1008.64 524.481)"/><path d="M870.5 708.474 1037.18 708.474" stroke="#FF0000" stroke-width="1.33348" stroke-miterlimit="8" stroke-dasharray="10.6678 4.00044 1.33348 4.00044" fill="none" fill-rule="evenodd"/><path d="M870.5 652.476 1037.18 652.476" stroke="#FF0000" stroke-width="1.33348" stroke-miterlimit="8" stroke-dasharray="10.6678 4.00044 1.33348 4.00044" fill="none" fill-rule="evenodd"/><path d="M870.5 597.478 1037.18 597.478" stroke="#FF0000" stroke-width="1.33348" stroke-miterlimit="8" stroke-dasharray="10.6678 4.00044 1.33348 4.00044" fill="none" fill-rule="evenodd"/><path d="M870.5 543.48 1037.18 543.48" stroke="#FF0000" stroke-width="1.33348" stroke-miterlimit="8" stroke-dasharray="10.6678 4.00044 1.33348 4.00044" fill="none" fill-rule="evenodd"/><path d="M0 0 0.000104998 110.123" stroke="#FFFF00" stroke-width="1.33348" stroke-miterlimit="8" stroke-dasharray="5.33392 4.00044" fill="none" fill-rule="evenodd" transform="matrix(6.12346e-17 1 1.00004 -6.12323e-17 897.5 509.481)"/><path d="M0 0 0.000104998 107.139" stroke="#FFFF00" stroke-width="1.33348" stroke-miterlimit="8" stroke-dasharray="5.33392 4.00044" fill="none" fill-rule="evenodd" transform="matrix(-1.00004 1.22465e-16 1.22469e-16 1 969.5 399.485)"/><path d="M0 0 0.000104998 107.139" stroke="#FFFF00" stroke-width="1.33348" stroke-miterlimit="8" stroke-dasharray="5.33392 4.00044" fill="none" fill-rule="evenodd" transform="matrix(-1.00004 1.22465e-16 1.22469e-16 1 929.5 399.485)"/><path d="M949.5 537.156 949.5 370.486" stroke="#FF0000" stroke-width="1.33353" stroke-miterlimit="8" stroke-dasharray="10.6682 4.00059 1.33353 4.00059" fill="none" fill-rule="evenodd"/><path d="M0 0 0.000104998 107.139" stroke="#FFFF00" stroke-width="1.33348" stroke-miterlimit="8" stroke-dasharray="5.33392 4.00044" fill="none" fill-rule="evenodd" transform="matrix(1.00004 0 0 -1 277.5 1039.6)"/><path d="M0 0 0.000104998 107.139" stroke="#FFFF00" stroke-width="1.33348" stroke-miterlimit="8" stroke-dasharray="5.33392 4.00044" fill="none" fill-rule="evenodd" transform="matrix(1.00004 0 0 -1 307.5 1039.6)"/><path d="M292.5 901.467 292.5 1068.14" stroke="#FF0000" stroke-width="1.33353" stroke-miterlimit="8" stroke-dasharray="10.6682 4.00059 1.33353 4.00059" fill="none" fill-rule="evenodd"/><path d="M0 0 0.000104998 107.139" stroke="#3B21FF" stroke-width="1.33348" stroke-miterlimit="8" stroke-dasharray="5.33392 4.00044" fill="none" fill-rule="evenodd" transform="matrix(1.00004 0 0 -1 271.5 1039.6)"/><path d="M0 0 0.000104998 107.139" stroke="#3B21FF" stroke-width="1.33348" stroke-miterlimit="8" stroke-dasharray="5.33392 4.00044" fill="none" fill-rule="evenodd" transform="matrix(1.00004 0 0 -1 312.5 1037.6)"/><path d="M292.5 624.477 292.5 680.985" stroke="#FF0000" stroke-width="1.33353" stroke-miterlimit="8" stroke-dasharray="5.33412 4.00059 1.33353 4.00059" fill="none" fill-rule="evenodd"/><path d="M266.5 652.476 321.612 652.476" stroke="#FF0000" stroke-width="1.33353" stroke-miterlimit="8" stroke-dasharray="5.33412 4.00059 1.33353 4.00059" fill="none" fill-rule="evenodd"/><path d="M292.5 514.481 292.5 570.989" stroke="#FF0000" stroke-width="1.33353" stroke-miterlimit="8" stroke-dasharray="5.33412 4.00059 1.33353 4.00059" fill="none" fill-rule="evenodd"/><path d="M266.5 542.48 321.612 542.48" stroke="#FF0000" stroke-width="1.33353" stroke-miterlimit="8" stroke-dasharray="5.33412 4.00059 1.33353 4.00059" fill="none" fill-rule="evenodd"/><path d="M275.5 650.976C275.5 642.416 282.44 635.477 291 635.477 299.56 635.477 306.5 642.416 306.5 650.976 306.5 659.536 299.56 666.475 291 666.475 282.44 666.475 275.5 659.536 275.5 650.976Z" stroke="#2DD4BF" stroke-width="1.33353" stroke-miterlimit="8" fill="none" fill-rule="evenodd"/><path d="M270 648.976C270 637.931 278.954 628.977 290 628.977 301.046 628.977 310 637.931 310 648.976 310 660.021 301.046 668.975 290 668.975 278.954 668.975 270 660.021 270 648.976Z" stroke="#3B21FF" stroke-width="2.00029" stroke-miterlimit="8" fill="none" fill-rule="evenodd"/><path d="M276.5 540.98C276.5 532.42 283.44 525.481 292 525.481 300.56 525.481 307.5 532.42 307.5 540.98 307.5 549.54 300.56 556.479 292 556.479 283.44 556.479 276.5 549.54 276.5 540.98Z" stroke="#2DD4BF" stroke-width="1.33353" stroke-miterlimit="8" fill="none" fill-rule="evenodd"/><path d="M271 539.98C271 528.935 279.954 519.981 291 519.981 302.046 519.981 311 528.935 311 539.98 311 551.025 302.046 559.979 291 559.979 279.954 559.979 271 551.025 271 539.98Z" stroke="#3B21FF" stroke-width="2.00029" stroke-miterlimit="8" fill="none" fill-rule="evenodd"/></g></svg>