<svg width="2268" height="1512" xmlns="http://www.w3.org/2000/svg" xmlns:xlink="http://www.w3.org/1999/xlink" overflow="hidden"><defs><clipPath id="clip0"><rect x="0" y="0" width="2268" height="1512"/></clipPath></defs><g clip-path="url(#clip0)"><rect x="0" y="0" width="2268" height="1511.94" fill="#042F2E"/><path d="M1133.5 0.500003 1133.5 1512.5" stroke="#FFFFFF" stroke-width="0.666765" stroke-miterlimit="8" fill="none" fill-rule="evenodd"/><text fill="#FFFFFF" font-family="Calibri,Calibri_MSFontService,sans-serif" font-weight="400" font-size="27" transform="matrix(1 0 0 0.999963 426.167 1133)">±</text><text fill="#FFFFFF" font-family="Calibri,Calibri_MSFontService,sans-serif" font-weight="400" font-size="27" transform="matrix(1 0 0 0.999963 439.503 1133)">0.02</text><text fill="#FFFFFF" font-family="Calibri,Calibri_MSFontService,sans-serif" font-weight="400" font-size="27" transform="matrix(-1.83697e-16 -0.999927 1.00004 -1.8369e-16 132.413 687)">±</text><text fill="#FFFFFF" font-family="Calibri,Calibri_MSFontService,sans-serif" font-weight="400" font-size="27" transform="matrix(-1.83697e-16 -0.999927 1.00004 -1.8369e-16 132.413 673)">0.02</text><text fill="#FFFFFF" font-family="Calibri,Calibri_MSFontService,sans-serif" font-weight="400" font-size="27" transform="matrix(1 0 0 0.999963 1510.35 1131)">±</text><text fill="#FFFFFF" font-family="Calibri,Calibri_MSFontService,sans-serif" font-weight="400" font-size="27" transform="matrix(1 0 0 0.999963 1523.68 1131)">0.02</text><text fill="#FFFFFF" font-family="Calibri,Calibri_MSFontService,sans-serif" font-weight="400" font-size="27" transform="matrix(-1.83697e-16 -0.999927 1.00004 -1.8369e-16 1957.89 646)">±</text><text fill="#FFFFFF" font-family="Calibri,Calibri_MSFontService,sans-serif" font-weight="400" font-size="27" transform="matrix(-1.83697e-16 -0.999927 1.00004 -1.8369e-16 1957.89 633)">0.02</text><path d="M0 0 0.000104998 141.266" stroke="#767171" stroke-width="1.33348" stroke-miterlimit="8" fill="none" fill-rule="evenodd" transform="matrix(1.00004 0 0 -1 510.5 1158.73)"/><path d="M0 0 0.000104998 142.374" stroke="#767171" stroke-width="1.33348" stroke-miterlimit="8" fill="none" fill-rule="evenodd" transform="matrix(1.00004 0 0 -1 398.5 1158.84)"/><path d="M407.501 1142.79 502.147 1142.79 502.147 1144.12 407.501 1144.12ZM407.501 1143.46 412.835 1150.13 399.5 1143.46 412.835 1136.79ZM502.147 1143.46 496.812 1136.79 510.148 1143.46 496.812 1150.13Z" fill="#767171"/><path d="M0 0 0.000104998 136.457" stroke="#767171" stroke-width="1.33348" stroke-miterlimit="8" fill="none" fill-rule="evenodd" transform="matrix(1.00004 0 0 -1 1593.5 1155.92)"/><path d="M0 0 0.251261 135.855" stroke="#767171" stroke-width="1.33348" stroke-miterlimit="8" fill="none" fill-rule="evenodd" transform="matrix(1.00004 0 0 -1 1481.5 1154.32)"/><path d="M1490.5 1138.79 1585.15 1138.79 1585.15 1140.12 1490.5 1140.12ZM1490.5 1139.46 1495.84 1146.13 1482.5 1139.46 1495.84 1132.79ZM1585.15 1139.46 1579.81 1132.79 1593.15 1139.46 1579.81 1146.13Z" fill="#767171"/><path d="M1949.5 670.475 2084.25 670.476" stroke="#767171" stroke-width="1.33353" stroke-miterlimit="8" fill="none" fill-rule="evenodd"/><path d="M1949.5 558.479 2085.36 558.48" stroke="#767171" stroke-width="1.33353" stroke-miterlimit="8" fill="none" fill-rule="evenodd"/><path d="M1965.17 567.48 1965.17 662.122 1963.83 662.122 1963.83 567.48ZM1964.5 567.48 1957.83 572.814 1964.5 559.479 1971.17 572.814ZM1964.5 662.122 1971.17 656.788 1964.5 670.123 1957.83 656.788Z" fill="#767171"/><path d="M0 0 136.794 0.460103" stroke="#767171" stroke-width="1.33348" stroke-miterlimit="8" fill="none" fill-rule="evenodd" transform="matrix(-1.00004 0 0 1 262.299 596.478)"/><path d="M138.167 605.479 138.167 698.653 136.833 698.653 136.833 605.479ZM137.5 605.479 130.832 610.813 137.5 597.478 144.168 610.813ZM137.5 698.653 144.168 693.319 137.5 706.653 130.832 693.319Z" fill="#767171"/><path d="M0 0 136.794 0.460103" stroke="#767171" stroke-width="1.33348" stroke-miterlimit="8" fill="none" fill-rule="evenodd" transform="matrix(-1.00004 0 0 1 260.299 707.474)"/><text fill="#767171" font-family="Calibri,Calibri_MSFontService,sans-serif" font-weight="400" font-size="27" transform="matrix(1 0 0 0.999963 1445.15 1182)">±</text><text fill="#767171" font-family="Calibri,Calibri_MSFontService,sans-serif" font-weight="400" font-size="27" transform="matrix(1 0 0 0.999963 1458.48 1182)">0.1</text><text fill="#767171" font-family="Calibri,Calibri_MSFontService,sans-serif" font-weight="400" font-size="16" transform="matrix(1 0 0 0.999963 383.248 1201)">±</text><text fill="#767171" font-family="Calibri,Calibri_MSFontService,sans-serif" font-weight="400" font-size="27" transform="matrix(1 0 0 0.999963 391.25 1201)">0.1</text><text fill="#767171" font-family="Calibri,Calibri_MSFontService,sans-serif" font-weight="400" font-size="27" transform="matrix(-1.83697e-16 -0.999927 1.00004 -1.8369e-16 1904.92 559)">±</text><text fill="#767171" font-family="Calibri,Calibri_MSFontService,sans-serif" font-weight="400" font-size="27" transform="matrix(-1.83697e-16 -0.999927 1.00004 -1.8369e-16 1904.92 546)">0.1</text><text fill="#767171" font-family="Calibri,Calibri_MSFontService,sans-serif" font-weight="400" font-size="27" transform="matrix(6.12323e-17 0.999927 -1.00004 6.12301e-17 679.043 935)">±</text><text fill="#767171" font-family="Calibri,Calibri_MSFontService,sans-serif" font-weight="400" font-size="27" transform="matrix(6.12323e-17 0.999927 -1.00004 6.12301e-17 679.043 948)">0.1</text><path d="M247.501 1279.79 502.524 1279.79 502.524 1281.12 247.501 1281.12ZM247.501 1280.45 252.835 1287.12 239.5 1280.45 252.835 1273.79ZM502.524 1280.45 497.189 1273.79 510.525 1280.45 497.189 1287.12Z" fill="#767171"/><path d="M0 0 0.000104998 278.63" stroke="#767171" stroke-width="1.33348" stroke-miterlimit="8" fill="none" fill-rule="evenodd" transform="matrix(1.00004 0 0 -1 510.5 1296.09)"/><path d="M0 0 0.000104998 250.748" stroke="#767171" stroke-width="1.33348" stroke-miterlimit="8" fill="none" fill-rule="evenodd" transform="matrix(1.00004 0 0 -1 239.5 1296.21)"/><path d="M668.167 938.467 668.167 976.385 666.833 976.385 666.833 938.467ZM667.5 938.467 660.832 943.801 667.5 930.466 674.168 943.801ZM667.5 976.385 674.168 971.051 667.5 984.386 660.832 971.051Z" fill="#767171"/><path d="M602.5 984.464 680.762 985.248" stroke="#767171" stroke-width="1.33353" stroke-miterlimit="8" fill="none" fill-rule="evenodd"/><path d="M607.5 929.466 680.535 929.466" stroke="#767171" stroke-width="1.33353" stroke-miterlimit="8" fill="none" fill-rule="evenodd"/><path d="M8.00921-0.557458 50.1291 0.017575 50.1109 1.35093 7.99101 0.775898ZM8.00014 0.10922 13.2425 6.84881 0 0 13.4246-6.48475ZM50.12 0.684253 44.8776-6.05534 58.1201 0.793473 44.6955 7.27822Z" fill="#767171" transform="matrix(-1.00004 0 0 1 2173.62 774.471)"/><path d="M2115.5 702.474 2116.01 794.906" stroke="#767171" stroke-width="1.33353" stroke-miterlimit="8" fill="none" fill-rule="evenodd"/><path d="M2172.5 717.474 2172.85 792.799" stroke="#767171" stroke-width="1.33353" stroke-miterlimit="8" fill="none" fill-rule="evenodd"/><path d="M1912.17 407.486 1912.17 663.686 1910.83 663.686 1910.83 407.486ZM1911.5 407.486 1904.83 412.82 1911.5 399.485 1918.17 412.82ZM1911.5 663.686 1918.17 658.352 1911.5 671.687 1904.83 658.352Z" fill="#767171"/><path d="M1894.5 672.596 2085.56 670.475" stroke="#767171" stroke-width="1.33348" stroke-miterlimit="8" fill="none" fill-rule="evenodd"/><path d="M0 0 0.000104998 167.699" stroke="#767171" stroke-width="1.33348" stroke-miterlimit="8" fill="none" fill-rule="evenodd" transform="matrix(6.12346e-17 1 1.00004 -6.12323e-17 1889.5 399.485)"/><path d="M841.5 372.486 859.026 395.657" stroke="#767171" stroke-width="1.33353" stroke-miterlimit="8" fill="none" fill-rule="evenodd"/><path d="M0 0 26.706 58.0697" stroke="#767171" stroke-width="1.33348" stroke-miterlimit="8" fill="none" fill-rule="evenodd" transform="matrix(1.00004 0 0 -1 858.5 393.557)"/><path d="M1206.5 376.486 1224.03 399.657" stroke="#767171" stroke-width="1.33353" stroke-miterlimit="8" fill="none" fill-rule="evenodd"/><path d="M0 0 26.706 58.0698" stroke="#767171" stroke-width="1.33348" stroke-miterlimit="8" fill="none" fill-rule="evenodd" transform="matrix(1.00004 0 0 -1 1223.5 397.557)"/><path d="M1298.5 321.015 1321.67 303.489" stroke="#767171" stroke-width="1.33348" stroke-miterlimit="8" fill="none" fill-rule="evenodd"/><path d="M0 0 26.706 58.0697" stroke="#767171" stroke-width="1.33348" stroke-miterlimit="8" fill="none" fill-rule="evenodd" transform="matrix(-1.83704e-16 -1 -1.00004 1.83697e-16 1319.57 303.196)"/><text fill="#767171" font-family="Calibri,Calibri_MSFontService,sans-serif" font-weight="400" font-size="27" transform="matrix(1 0 0 0.999963 828.324 366)">3.2</text><text fill="#767171" font-family="Calibri,Calibri_MSFontService,sans-serif" font-weight="400" font-size="27" transform="matrix(1 0 0 0.999963 1194.56 368)">3.2</text><text fill="#767171" font-family="Calibri,Calibri_MSFontService,sans-serif" font-weight="400" font-size="27" transform="matrix(-1.83697e-16 -0.999927 1.00004 -1.8369e-16 1290.08 333)">3.2</text><path d="M568.5 907.467 586.026 930.637" stroke="#767171" stroke-width="1.33353" stroke-miterlimit="8" fill="none" fill-rule="evenodd"/><path d="M0 0 26.706 58.0697" stroke="#767171" stroke-width="1.33348" stroke-miterlimit="8" fill="none" fill-rule="evenodd" transform="matrix(1.00004 0 0 -1 585.5 928.538)"/><text fill="#767171" font-family="Calibri,Calibri_MSFontService,sans-serif" font-weight="400" font-size="27" transform="matrix(1 0 0 0.999963 559.186 901)">3.2</text><path d="M247.501 298.822 593.832 298.822 593.832 300.156 247.501 300.156ZM247.501 299.489 252.835 306.156 239.5 299.489 252.835 292.822ZM593.83 299.489 588.496 292.822 601.832 299.489 588.496 306.156Z" fill="#767171"/><path d="M0 0 0.000104998 109.957" stroke="#767171" stroke-width="1.33348" stroke-miterlimit="8" fill="none" fill-rule="evenodd" transform="matrix(1.00004 0 0 -1 239.5 392.447)"/><path d="M0 0 0.000104998 109.957" stroke="#767171" stroke-width="1.33348" stroke-miterlimit="8" fill="none" fill-rule="evenodd" transform="matrix(1.00004 0 0 -1 601.5 392.447)"/><path d="M1217.17 406.485 1217.17 701.916 1215.83 701.916 1215.83 406.485ZM1216.5 406.486 1209.83 411.82 1216.5 398.485 1223.17 411.82ZM1216.5 701.916 1223.17 696.582 1216.5 709.917 1209.83 696.582Z" fill="#767171"/><path d="M1200.5 399.485 1317.98 399.485" stroke="#767171" stroke-width="1.33353" stroke-miterlimit="8" fill="none" fill-rule="evenodd"/><path d="M1198.5 711.474 1319.57 711.474" stroke="#767171" stroke-width="1.33353" stroke-miterlimit="8" fill="none" fill-rule="evenodd"/><path d="M1329.5 301.822 1676.53 301.822 1676.53 303.156 1329.5 303.156ZM1329.5 302.489 1334.84 309.156 1321.5 302.489 1334.84 295.822ZM1676.52 302.489 1671.19 295.822 1684.53 302.489 1671.19 309.156Z" fill="#767171"/><path d="M0 0 0.000104998 109.957" stroke="#767171" stroke-width="1.33348" stroke-miterlimit="8" fill="none" fill-rule="evenodd" transform="matrix(1.00004 0 0 -1 1321.5 395.446)"/><path d="M0 0 0.000104998 109.957" stroke="#767171" stroke-width="1.33348" stroke-miterlimit="8" fill="none" fill-rule="evenodd" transform="matrix(1.00004 0 0 -1 1684.5 395.446)"/><path d="M1783.17 941.467 1783.17 1035.45 1781.83 1035.45 1781.83 941.467ZM1782.5 941.467 1775.83 946.801 1782.5 933.466 1789.17 946.801ZM1782.5 1035.45 1789.17 1030.12 1782.5 1043.46 1775.83 1030.12Z" fill="#767171"/><path d="M1691.5 933.466 1796.34 933.466" stroke="#767171" stroke-width="1.33353" stroke-miterlimit="8" fill="none" fill-rule="evenodd"/><path d="M1692.5 1043.46 1797.28 1043.46" stroke="#767171" stroke-width="1.33353" stroke-miterlimit="8" fill="none" fill-rule="evenodd"/><path d="M828.167 405.486 828.167 752.477 826.833 752.477 826.833 405.486ZM827.5 405.486 820.832 410.82 827.5 397.485 834.168 410.82ZM827.5 752.477 834.168 747.143 827.5 760.478 820.832 747.143Z" fill="#767171"/><path d="M815.5 761.472 892.999 761.695" stroke="#767171" stroke-width="1.33353" stroke-miterlimit="8" fill="none" fill-rule="evenodd"/><path d="M0 0 79.148 0.677765" stroke="#767171" stroke-width="1.33348" stroke-miterlimit="8" fill="none" fill-rule="evenodd" transform="matrix(1.00004 0 0 -1 813.5 398.163)"/><path d="M1007.5 764.472 1007.5 854.465" stroke="#767171" stroke-width="1.33348" stroke-miterlimit="8" fill="none" fill-rule="evenodd"/><path d="M8.00087-0.666732 101.984-0.666643 101.984 0.666838 8.00087 0.666748ZM8.00088 7.63815e-06 13.3348 6.66741 0 0 13.3348-6.66739ZM101.984 9.73603e-05 96.65-6.66731 109.985 0.000104998 96.65 6.66749Z" fill="#767171" transform="matrix(-1.00004 0 0 1 1007.49 841.469)"/><path d="M896.5 764.472 896.5 854.465" stroke="#767171" stroke-width="1.33348" stroke-miterlimit="8" fill="none" fill-rule="evenodd"/><path d="M0 0 0.000104998 208.139" stroke="#767171" stroke-width="2.00022" stroke-miterlimit="8" fill="none" fill-rule="evenodd" transform="matrix(1.00004 0 0 -1 510 1225.1)"/><path d="M8.00058-1.00011 210.908-1.00001 210.908 1.00021 8.00058 1.00011ZM8.00088 3.83759e-06 13.3348 6.66741 0 0 13.3348-6.6674ZM210.908 0.000101161 205.574-6.6673 218.908 0.000104998 205.574 6.6675Z" fill="#767171" transform="matrix(-1.00004 0 0 1 509.917 1212.96)"/><path d="M291 1069.96 291 1224.54" stroke="#767171" stroke-width="2.00029" stroke-miterlimit="8" fill="none" fill-rule="evenodd"/><path d="M606.5 395.485 746.864 395.486" stroke="#767171" stroke-width="1.33353" stroke-miterlimit="8" fill="none" fill-rule="evenodd"/><path d="M325.5 709.474 747.006 709.474" stroke="#767171" stroke-width="1.33353" stroke-miterlimit="8" fill="none" fill-rule="evenodd"/><path d="M732.167 404.486 732.167 698.986 730.833 698.986 730.833 404.486ZM731.5 404.486 724.832 409.82 731.5 396.485 738.168 409.82ZM731.5 698.986 738.168 693.652 731.5 706.987 724.832 693.652Z" fill="#767171"/><path d="M1691.5 932.466 1757.8 932.466" stroke="#767171" stroke-width="1.33353" stroke-miterlimit="8" fill="none" fill-rule="evenodd"/><path d="M1745.17 940.467 1745.17 980.271 1743.83 980.271 1743.83 940.467ZM1744.5 940.467 1737.83 945.801 1744.5 932.466 1751.17 945.8ZM1744.5 980.271 1751.17 974.937 1744.5 988.272 1737.83 974.937Z" fill="#767171"/><path d="M1679.5 989.464 1757.17 989.464" stroke="#767171" stroke-width="1.33353" stroke-miterlimit="8" fill="none" fill-rule="evenodd"/><path d="M8.00377-0.635873 262.558 0.345981 262.553 1.67945 7.99863 0.697597ZM8.00082 0.0308604 13.309 6.71879 0 0 13.3604-6.61592ZM262.556 1.01272 257.248-5.67521 270.557 1.04358 257.197 7.6595Z" fill="#767171" transform="matrix(1.00004 0 0 -1 1322.5 1193.5)"/><path d="M0 0 0.284441 191.097" stroke="#767171" stroke-width="1.33348" stroke-miterlimit="8" fill="none" fill-rule="evenodd" transform="matrix(1.00004 0 0 -1 1593.5 1210.56)"/><path d="M0 0 0.0801138 165.628" stroke="#767171" stroke-width="1.33348" stroke-miterlimit="8" fill="none" fill-rule="evenodd" transform="matrix(1.00004 0 0 -1 1321.5 1211.09)"/><path d="M38.9985 19.9993C38.9985 31.0446 30.2683 39.9985 19.4992 39.9985 19.2604 39.9985 19.0216 39.994 18.783 39.985L19.4993 19.9993Z" fill="#FFFF00" fill-rule="evenodd" transform="matrix(1.00004 -1.22465e-16 -1.22469e-16 -1 2096 578.979)"/><path d="M40.9984 19.9993C40.9984 31.0446 31.8206 39.9985 20.4992 39.9985 20.2604 39.9985 20.0216 39.9945 19.7829 39.9863L20.4992 19.9993Z" fill="#FFFF00" fill-rule="evenodd" transform="matrix(-1.00004 0 0 1 2137 537.98)"/><path d="M38.9985 19.9993C38.9985 31.0446 30.2683 39.9985 19.4992 39.9985 19.2604 39.9985 19.0216 39.994 18.783 39.985L19.4993 19.9993Z" fill="#FFFF00" fill-rule="evenodd" transform="matrix(-6.12346e-17 -1 -1.00004 6.12323e-17 1502 1008.96)"/><path d="M39.9985 19.9993C39.9985 31.0446 31.0446 39.9985 19.9993 39.9985 19.7604 39.9985 19.5216 39.9943 19.283 39.9857L19.9993 19.9993Z" fill="#FFFF00" fill-rule="evenodd" transform="matrix(1.83704e-16 1 1.00004 -1.83697e-16 1461 968.964)"/><path d="M38.9986 20.4992C38.9986 31.8206 30.2685 40.9984 19.4993 40.9984 19.2545 40.9984 19.0098 40.9936 18.7652 40.9839L19.4993 20.4992Z" fill="#FFFF00" fill-rule="evenodd" transform="matrix(1.00004 -1.22465e-16 -1.22469e-16 -1 272 618.977)"/><path d="M38.9985 19.4993C38.9985 30.2684 30.2683 38.9985 19.4992 38.9985 19.2664 38.9985 19.0336 38.9943 18.8009 38.986L19.4993 19.4993Z" fill="#FFFF00" fill-rule="evenodd" transform="matrix(-1.00004 0 0 1 312 577.979)"/><path d="M39.9985 20.9993C39.9985 32.5969 31.0445 41.9986 19.9992 41.9985 19.7485 41.9985 19.4977 41.9936 19.2472 41.9837L19.9993 20.9993Z" fill="#FFFF00" fill-rule="evenodd" transform="matrix(-6.12346e-17 -1 -1.00004 6.12323e-17 421 1004.96)"/><path d="M37.9985 18.9993C37.9985 29.4923 29.4923 37.9986 18.9992 37.9986 18.7724 37.9986 18.5455 37.9946 18.3188 37.9864L18.9993 18.9993Z" fill="#FFFF00" fill-rule="evenodd" transform="matrix(1.83704e-16 1 1.00004 -1.83697e-16 380 965.965)"/><path d="M39.9985 20.4993C39.9985 31.8207 31.0445 40.9986 19.9992 40.9985 19.7544 40.9985 19.5097 40.9939 19.2651 40.9847L19.9993 20.4993Z" fill="#FFFF00" fill-rule="evenodd" transform="matrix(-1.00004 0 0 1 312 686.975)"/><path d="M40.9984 20.9992C40.9984 32.5968 31.8206 41.9984 20.4992 41.9984 20.2484 41.9984 19.9977 41.9937 19.7471 41.9843L20.4992 20.9992Z" fill="#FFFF00" fill-rule="evenodd" transform="matrix(1.00004 -1.22465e-16 -1.22469e-16 -1 271 729.973)"/><path d="M39.9985 20.9993C39.9985 32.5969 31.0445 41.9986 19.9992 41.9985 19.7485 41.9985 19.4977 41.9936 19.2472 41.9837L19.9993 20.9993Z" fill="#FFFF00" fill-rule="evenodd" transform="matrix(-6.12346e-17 -1 -1.00004 6.12323e-17 1614 1009.96)"/><path d="M37.9985 18.9993C37.9985 29.4923 29.4923 37.9986 18.9992 37.9986 18.7724 37.9986 18.5455 37.9946 18.3188 37.9864L18.9993 18.9993Z" fill="#FFFF00" fill-rule="evenodd" transform="matrix(1.83704e-16 1 1.00004 -1.83697e-16 1573 970.964)"/><path d="M40.9985 20.4993C40.9985 31.8207 31.8206 40.9986 20.4992 40.9985 20.2544 40.9985 20.0097 40.9941 19.7651 40.9854L20.4993 20.4993Z" fill="#FFFF00" fill-rule="evenodd" transform="matrix(-6.12346e-17 -1 -1.00004 6.12323e-17 530 1005.96)"/><path d="M38.9985 18.9993C38.9985 29.4924 30.2684 37.9987 19.4993 37.9987 19.2724 37.9987 19.0455 37.9948 18.8188 37.9871L19.4993 18.9993Z" fill="#FFFF00" fill-rule="evenodd" transform="matrix(1.83704e-16 1 1.00004 -1.83697e-16 490 965.964)"/><path d="M39.9985 20.4993C39.9985 31.8207 31.0445 40.9986 19.9992 40.9985 19.7544 40.9985 19.5097 40.9939 19.2651 40.9847L19.9993 20.4993Z" fill="#FFFF00" fill-rule="evenodd" transform="matrix(1.00004 -1.22465e-16 -1.22469e-16 -1 2095 689.975)"/><path d="M37.9986 18.9993C37.9986 29.4923 29.4923 37.9986 18.9993 37.9986 18.7724 37.9986 18.5456 37.9946 18.3188 37.9864L18.9993 18.9993Z" fill="#FFFF00" fill-rule="evenodd" transform="matrix(-1.00004 0 0 1 2134 649.976)"/><path d="M1463.5 402.485 1463.5 509.037" stroke="#FFFF00" stroke-width="1.33353" stroke-miterlimit="8" stroke-dasharray="5.33412 4.00059" fill="none" fill-rule="evenodd"/><path d="M0 0 0.000104998 107.139" stroke="#FFFF00" stroke-width="1.33348" stroke-miterlimit="8" stroke-dasharray="5.33392 4.00044" fill="none" fill-rule="evenodd" transform="matrix(1.00004 0 0 -1 1518.5 509.624)"/><path d="M0 0 0.000104998 107.139" stroke="#FFFF00" stroke-width="1.33348" stroke-miterlimit="8" stroke-dasharray="5.33392 4.00044" fill="none" fill-rule="evenodd" transform="matrix(1.00004 0 0 -1 1503.5 509.624)"/><path d="M0 0 0.000104998 107.139" stroke="#FFFF00" stroke-width="1.33348" stroke-miterlimit="8" stroke-dasharray="5.33392 4.00044" fill="none" fill-rule="evenodd" transform="matrix(1.00004 0 0 -1 1556.5 508.624)"/><path d="M0 0 0.000104998 107.139" stroke="#FFFF00" stroke-width="1.33348" stroke-miterlimit="8" stroke-dasharray="5.33392 4.00044" fill="none" fill-rule="evenodd" transform="matrix(1.00004 0 0 -1 1574.5 509.624)"/><path d="M0 0 0.000104998 107.139" stroke="#FFFF00" stroke-width="1.33348" stroke-miterlimit="8" stroke-dasharray="5.33392 4.00044" fill="none" fill-rule="evenodd" transform="matrix(1.00004 0 0 -1 1612.5 509.624)"/><path d="M0 0 0.000104998 107.139" stroke="#FFFF00" stroke-width="1.33348" stroke-miterlimit="8" stroke-dasharray="5.33392 4.00044" fill="none" fill-rule="evenodd" transform="matrix(1.00004 0 0 -1 1627.5 509.624)"/><path d="M0 0 0.000104998 107.139" stroke="#FFFF00" stroke-width="1.33348" stroke-miterlimit="8" stroke-dasharray="5.33392 4.00044" fill="none" fill-rule="evenodd" transform="matrix(1.00004 0 0 -1 1667.5 509.624)"/><path d="M1482.5 371.486 1482.5 538.156" stroke="#FF0000" stroke-width="1.33353" stroke-miterlimit="8" stroke-dasharray="10.6682 4.00059 1.33353 4.00059" fill="none" fill-rule="evenodd"/><path d="M1538.5 371.486 1538.5 538.156" stroke="#FF0000" stroke-width="1.33353" stroke-miterlimit="8" stroke-dasharray="10.6682 4.00059 1.33353 4.00059" fill="none" fill-rule="evenodd"/><path d="M1594.5 371.486 1594.5 538.156" stroke="#FF0000" stroke-width="1.33353" stroke-miterlimit="8" stroke-dasharray="10.6682 4.00059 1.33353 4.00059" fill="none" fill-rule="evenodd"/><path d="M1648.5 371.486 1648.5 538.156" stroke="#FF0000" stroke-width="1.33353" stroke-miterlimit="8" stroke-dasharray="10.6682 4.00059 1.33353 4.00059" fill="none" fill-rule="evenodd"/><path d="M1321.5 397.485 1321.5 712.4" stroke="#5EEAD4" stroke-width="3.00044" stroke-miterlimit="8" fill="none" fill-rule="evenodd"/><path d="M0 0 0.000104998 203.519" stroke="#5EEAD4" stroke-width="3.00033" stroke-miterlimit="8" fill="none" fill-rule="evenodd" transform="matrix(1.00004 0 0 -1 1432.5 712)"/><path d="M0 0 113.443 0.000104998" stroke="#5EEAD4" stroke-width="3.00033" stroke-miterlimit="8" fill="none" fill-rule="evenodd" transform="matrix(-1.00004 0 0 1 1433.95 712.474)"/><path d="M1320.5 399.485 1685.48 399.485" stroke="#5EEAD4" stroke-width="3.00044" stroke-miterlimit="8" fill="none" fill-rule="evenodd"/><path d="M1685.5 398.485 1685.5 508.93" stroke="#5EEAD4" stroke-width="3.00044" stroke-miterlimit="8" fill="none" fill-rule="evenodd"/><path d="M0 0 252.401 0.000104998" stroke="#5EEAD4" stroke-width="3.00033" stroke-miterlimit="8" fill="none" fill-rule="evenodd" transform="matrix(-1.00004 0 0 1 1684.91 508.481)"/><rect x="1321.5" y="933.466" width="364" height="111.996" stroke="#5EEAD4" stroke-width="3.00044" stroke-miterlimit="8" fill="none"/><path d="M0 0 0.000104998 110.123" stroke="#FFFF00" stroke-width="1.33348" stroke-miterlimit="8" stroke-dasharray="5.33392 4.00044" fill="none" fill-rule="evenodd" transform="matrix(1.00004 0 0 -1 1430.5 1043.59)"/><path d="M0 0 0.000104998 107.139" stroke="#FFFF00" stroke-width="1.33348" stroke-miterlimit="8" stroke-dasharray="5.33392 4.00044" fill="none" fill-rule="evenodd" transform="matrix(-1.83704e-16 -1 -1.00004 1.83697e-16 1429.64 1009.46)"/><path d="M0 0 0.000104998 107.139" stroke="#FFFF00" stroke-width="1.33348" stroke-miterlimit="8" stroke-dasharray="5.33392 4.00044" fill="none" fill-rule="evenodd" transform="matrix(-1.83704e-16 -1 -1.00004 1.83697e-16 1429.64 969.464)"/><path d="M1291.5 989.464 1458.18 989.464" stroke="#FF0000" stroke-width="1.33348" stroke-miterlimit="8" stroke-dasharray="10.6678 4.00044 1.33348 4.00044" fill="none" fill-rule="evenodd"/><path d="M1538.5 962.465 1538.5 1018.97" stroke="#FF0000" stroke-width="1.33353" stroke-miterlimit="8" stroke-dasharray="5.33412 4.00059 1.33353 4.00059" fill="none" fill-rule="evenodd"/><path d="M1511.5 990.464 1566.61 990.464" stroke="#FF0000" stroke-width="1.33353" stroke-miterlimit="8" stroke-dasharray="5.33412 4.00059 1.33353 4.00059" fill="none" fill-rule="evenodd"/><path d="M1481.5 961.465 1481.5 1017.97" stroke="#FF0000" stroke-width="1.33353" stroke-miterlimit="8" stroke-dasharray="5.33412 4.00059 1.33353 4.00059" fill="none" fill-rule="evenodd"/><path d="M1455.5 989.464 1510.61 989.464" stroke="#FF0000" stroke-width="1.33353" stroke-miterlimit="8" stroke-dasharray="5.33412 4.00059 1.33353 4.00059" fill="none" fill-rule="evenodd"/><path d="M1594.5 962.465 1594.5 1018.97" stroke="#FF0000" stroke-width="1.33353" stroke-miterlimit="8" stroke-dasharray="5.33412 4.00059 1.33353 4.00059" fill="none" fill-rule="evenodd"/><path d="M1567.5 990.464 1622.61 990.464" stroke="#FF0000" stroke-width="1.33353" stroke-miterlimit="8" stroke-dasharray="5.33412 4.00059 1.33353 4.00059" fill="none" fill-rule="evenodd"/><path d="M1649.5 962.465 1649.5 1018.97" stroke="#FF0000" stroke-width="1.33353" stroke-miterlimit="8" stroke-dasharray="5.33412 4.00059 1.33353 4.00059" fill="none" fill-rule="evenodd"/><path d="M1623.5 990.464 1678.61 990.464" stroke="#FF0000" stroke-width="1.33353" stroke-miterlimit="8" stroke-dasharray="5.33412 4.00059 1.33353 4.00059" fill="none" fill-rule="evenodd"/><path d="M1463.5 989.464C1463.5 978.971 1472.01 970.464 1482.5 970.464 1492.99 970.464 1501.5 978.971 1501.5 989.464 1501.5 999.957 1492.99 1008.46 1482.5 1008.46 1472.01 1008.46 1463.5 999.957 1463.5 989.464Z" stroke="#2DD4BF" stroke-width="3.00044" stroke-miterlimit="8" fill="none" fill-rule="evenodd"/><path d="M1519.5 989.464C1519.5 978.971 1528.23 970.464 1539 970.464 1549.77 970.464 1558.5 978.971 1558.5 989.464 1558.5 999.957 1549.77 1008.46 1539 1008.46 1528.23 1008.46 1519.5 999.957 1519.5 989.464Z" stroke="#2DD4BF" stroke-width="3.00044" stroke-miterlimit="8" fill="none" fill-rule="evenodd"/><path d="M1574.5 989.464C1574.5 978.971 1583.23 970.464 1594 970.464 1604.77 970.464 1613.5 978.971 1613.5 989.464 1613.5 999.957 1604.77 1008.46 1594 1008.46 1583.23 1008.46 1574.5 999.957 1574.5 989.464Z" stroke="#2DD4BF" stroke-width="3.00044" stroke-miterlimit="8" fill="none" fill-rule="evenodd"/><path d="M1629.5 990.964C1629.5 980.194 1638.23 971.464 1649 971.464 1659.77 971.464 1668.5 980.194 1668.5 990.964 1668.5 1001.73 1659.77 1010.46 1649 1010.46 1638.23 1010.46 1629.5 1001.73 1629.5 990.964Z" stroke="#2DD4BF" stroke-width="3.00044" stroke-miterlimit="8" fill="none" fill-rule="evenodd"/><path d="M1430.06 528.481 1323.5 528.481" stroke="#FFFF00" stroke-width="1.33348" stroke-miterlimit="8" stroke-dasharray="5.33392 4.00044" fill="none" fill-rule="evenodd"/><path d="M0 0 0.000104998 107.139" stroke="#FFFF00" stroke-width="1.33348" stroke-miterlimit="8" stroke-dasharray="5.33392 4.00044" fill="none" fill-rule="evenodd" transform="matrix(6.12346e-17 1 1.00004 -6.12323e-17 1323.5 583.479)"/><path d="M0 0 0.000104998 107.139" stroke="#FFFF00" stroke-width="1.33348" stroke-miterlimit="8" stroke-dasharray="5.33392 4.00044" fill="none" fill-rule="evenodd" transform="matrix(6.12346e-17 1 1.00004 -6.12323e-17 1323.5 568.479)"/><path d="M0 0 0.000104998 107.139" stroke="#FFFF00" stroke-width="1.33348" stroke-miterlimit="8" stroke-dasharray="5.33392 4.00044" fill="none" fill-rule="evenodd" transform="matrix(6.12346e-17 1 1.00004 -6.12323e-17 1323.5 621.477)"/><path d="M0 0 0.000104998 107.139" stroke="#FFFF00" stroke-width="1.33348" stroke-miterlimit="8" stroke-dasharray="5.33392 4.00044" fill="none" fill-rule="evenodd" transform="matrix(6.12346e-17 1 1.00004 -6.12323e-17 1323.5 640.477)"/><path d="M0 0 0.000104998 107.139" stroke="#FFFF00" stroke-width="1.33348" stroke-miterlimit="8" stroke-dasharray="5.33392 4.00044" fill="none" fill-rule="evenodd" transform="matrix(6.12346e-17 1 1.00004 -6.12323e-17 1323.5 678.475)"/><path d="M1461.18 548.48 1294.5 548.48" stroke="#FF0000" stroke-width="1.33348" stroke-miterlimit="8" stroke-dasharray="10.6678 4.00044 1.33348 4.00044" fill="none" fill-rule="evenodd"/><path d="M1461.18 605.478 1294.5 605.478" stroke="#FF0000" stroke-width="1.33348" stroke-miterlimit="8" stroke-dasharray="10.6678 4.00044 1.33348 4.00044" fill="none" fill-rule="evenodd"/><path d="M1461.18 660.476 1294.5 660.476" stroke="#FF0000" stroke-width="1.33348" stroke-miterlimit="8" stroke-dasharray="10.6678 4.00044 1.33348 4.00044" fill="none" fill-rule="evenodd"/><rect x="2061.5" y="398.485" width="111" height="314.988" stroke="#5EEAD4" stroke-width="3.00033" stroke-miterlimit="8" fill="none"/><path d="M0 0 0.000104998 110.123" stroke="#FFFF00" stroke-width="1.33348" stroke-miterlimit="8" stroke-dasharray="5.33392 4.00044" fill="none" fill-rule="evenodd" transform="matrix(6.12346e-17 1 1.00004 -6.12323e-17 2062.5 507.481)"/><path d="M0 0 0.000104998 107.139" stroke="#FFFF00" stroke-width="1.33348" stroke-miterlimit="8" stroke-dasharray="5.33392 4.00044" fill="none" fill-rule="evenodd" transform="matrix(-1.00004 1.22465e-16 1.22469e-16 1 2136.5 397.485)"/><path d="M0 0 0.000104998 107.139" stroke="#FFFF00" stroke-width="1.33348" stroke-miterlimit="8" stroke-dasharray="5.33392 4.00044" fill="none" fill-rule="evenodd" transform="matrix(-1.00004 1.22465e-16 1.22469e-16 1 2096.5 397.485)"/><path d="M2116.5 535.156 2116.5 368.486" stroke="#FF0000" stroke-width="1.33353" stroke-miterlimit="8" stroke-dasharray="10.6682 4.00059 1.33353 4.00059" fill="none" fill-rule="evenodd"/><path d="M2144.01 615.477 2087.5 615.478" stroke="#FF0000" stroke-width="1.33348" stroke-miterlimit="8" stroke-dasharray="5.33392 4.00044 1.33348 4.00044" fill="none" fill-rule="evenodd"/><path d="M2116.5 588.478 2116.5 643.588" stroke="#FF0000" stroke-width="1.33348" stroke-miterlimit="8" stroke-dasharray="5.33392 4.00044 1.33348 4.00044" fill="none" fill-rule="evenodd"/><path d="M2145.01 558.479 2088.5 558.48" stroke="#FF0000" stroke-width="1.33348" stroke-miterlimit="8" stroke-dasharray="5.33392 4.00044 1.33348 4.00044" fill="none" fill-rule="evenodd"/><path d="M2117.5 532.48 2117.5 587.59" stroke="#FF0000" stroke-width="1.33348" stroke-miterlimit="8" stroke-dasharray="5.33392 4.00044 1.33348 4.00044" fill="none" fill-rule="evenodd"/><path d="M2144.01 670.475 2087.5 670.476" stroke="#FF0000" stroke-width="1.33348" stroke-miterlimit="8" stroke-dasharray="5.33392 4.00044 1.33348 4.00044" fill="none" fill-rule="evenodd"/><path d="M2116.5 644.476 2116.5 699.586" stroke="#FF0000" stroke-width="1.33348" stroke-miterlimit="8" stroke-dasharray="5.33392 4.00044 1.33348 4.00044" fill="none" fill-rule="evenodd"/><path d="M2117 539.48C2127.77 539.48 2136.5 548.21 2136.5 558.979 2136.5 569.749 2127.77 578.479 2117 578.479 2106.23 578.479 2097.5 569.749 2097.5 558.979 2097.5 548.21 2106.23 539.48 2117 539.48Z" stroke="#2DD4BF" stroke-width="3.00033" stroke-miterlimit="8" fill="none" fill-rule="evenodd"/><path d="M2117 596.478C2127.77 596.478 2136.5 605.208 2136.5 615.977 2136.5 626.747 2127.77 635.477 2117 635.477 2106.23 635.477 2097.5 626.747 2097.5 615.977 2097.5 605.208 2106.23 596.478 2117 596.478Z" stroke="#2DD4BF" stroke-width="3.00033" stroke-miterlimit="8" fill="none" fill-rule="evenodd"/><path d="M2117 651.476C2127.77 651.476 2136.5 660.206 2136.5 670.975 2136.5 681.745 2127.77 690.475 2117 690.475 2106.23 690.475 2097.5 681.745 2097.5 670.975 2097.5 660.206 2106.23 651.476 2117 651.476Z" stroke="#2DD4BF" stroke-width="3.00033" stroke-miterlimit="8" fill="none" fill-rule="evenodd"/><rect x="238.5" y="929.466" width="364" height="110.996" stroke="#5EEAD4" stroke-width="3.00044" stroke-miterlimit="8" fill="none"/><path d="M0 0 0.000104998 110.123" stroke="#FFFF00" stroke-width="1.33348" stroke-miterlimit="8" stroke-dasharray="5.33392 4.00044" fill="none" fill-rule="evenodd" transform="matrix(1.00004 0 0 -1 347.5 1039.59)"/><path d="M380.5 398.485 380.5 505.037" stroke="#FFFF00" stroke-width="1.33353" stroke-miterlimit="8" stroke-dasharray="5.33412 4.00059" fill="none" fill-rule="evenodd"/><path d="M0 0 0.000104998 107.139" stroke="#FFFF00" stroke-width="1.33348" stroke-miterlimit="8" stroke-dasharray="5.33392 4.00044" fill="none" fill-rule="evenodd" transform="matrix(1.00004 0 0 -1 435.5 504.624)"/><path d="M0 0 0.000104998 107.139" stroke="#FFFF00" stroke-width="1.33348" stroke-miterlimit="8" stroke-dasharray="5.33392 4.00044" fill="none" fill-rule="evenodd" transform="matrix(1.00004 0 0 -1 420.5 504.624)"/><path d="M0 0 0.000104998 107.139" stroke="#FFFF00" stroke-width="1.33348" stroke-miterlimit="8" stroke-dasharray="5.33392 4.00044" fill="none" fill-rule="evenodd" transform="matrix(1.00004 0 0 -1 473.5 503.624)"/><path d="M0 0 0.000104998 107.139" stroke="#FFFF00" stroke-width="1.33348" stroke-miterlimit="8" stroke-dasharray="5.33392 4.00044" fill="none" fill-rule="evenodd" transform="matrix(1.00004 0 0 -1 491.5 504.624)"/><path d="M0 0 0.000104998 107.139" stroke="#FFFF00" stroke-width="1.33348" stroke-miterlimit="8" stroke-dasharray="5.33392 4.00044" fill="none" fill-rule="evenodd" transform="matrix(1.00004 0 0 -1 529.5 504.624)"/><path d="M0 0 0.000104998 107.139" stroke="#FFFF00" stroke-width="1.33348" stroke-miterlimit="8" stroke-dasharray="5.33392 4.00044" fill="none" fill-rule="evenodd" transform="matrix(1.00004 0 0 -1 544.5 504.624)"/><path d="M0 0 0.000104998 107.139" stroke="#FFFF00" stroke-width="1.33348" stroke-miterlimit="8" stroke-dasharray="5.33392 4.00044" fill="none" fill-rule="evenodd" transform="matrix(1.00004 0 0 -1 584.5 504.624)"/><path d="M399.5 366.486 399.5 533.156" stroke="#FF0000" stroke-width="1.33353" stroke-miterlimit="8" stroke-dasharray="10.6682 4.00059 1.33353 4.00059" fill="none" fill-rule="evenodd"/><path d="M454.5 366.486 454.5 533.156" stroke="#FF0000" stroke-width="1.33353" stroke-miterlimit="8" stroke-dasharray="10.6682 4.00059 1.33353 4.00059" fill="none" fill-rule="evenodd"/><path d="M510.5 366.486 510.5 533.156" stroke="#FF0000" stroke-width="1.33353" stroke-miterlimit="8" stroke-dasharray="10.6682 4.00059 1.33353 4.00059" fill="none" fill-rule="evenodd"/><path d="M564.5 366.486 564.5 533.156" stroke="#FF0000" stroke-width="1.33353" stroke-miterlimit="8" stroke-dasharray="10.6682 4.00059 1.33353 4.00059" fill="none" fill-rule="evenodd"/><path d="M455.5 957.465 455.5 1013.97" stroke="#FF0000" stroke-width="1.33353" stroke-miterlimit="8" stroke-dasharray="5.33412 4.00059 1.33353 4.00059" fill="none" fill-rule="evenodd"/><path d="M428.5 985.464 483.612 985.464" stroke="#FF0000" stroke-width="1.33353" stroke-miterlimit="8" stroke-dasharray="5.33412 4.00059 1.33353 4.00059" fill="none" fill-rule="evenodd"/><path d="M398.5 956.465 398.5 1012.97" stroke="#FF0000" stroke-width="1.33353" stroke-miterlimit="8" stroke-dasharray="5.33412 4.00059 1.33353 4.00059" fill="none" fill-rule="evenodd"/><path d="M372.5 984.464 427.612 984.464" stroke="#FF0000" stroke-width="1.33353" stroke-miterlimit="8" stroke-dasharray="5.33412 4.00059 1.33353 4.00059" fill="none" fill-rule="evenodd"/><path d="M510.5 957.465 510.5 1013.97" stroke="#FF0000" stroke-width="1.33353" stroke-miterlimit="8" stroke-dasharray="5.33412 4.00059 1.33353 4.00059" fill="none" fill-rule="evenodd"/><path d="M484.5 985.464 539.612 985.464" stroke="#FF0000" stroke-width="1.33353" stroke-miterlimit="8" stroke-dasharray="5.33412 4.00059 1.33353 4.00059" fill="none" fill-rule="evenodd"/><path d="M566.5 957.465 566.5 1013.97" stroke="#FF0000" stroke-width="1.33353" stroke-miterlimit="8" stroke-dasharray="5.33412 4.00059 1.33353 4.00059" fill="none" fill-rule="evenodd"/><path d="M539.5 985.464 594.612 985.464" stroke="#FF0000" stroke-width="1.33353" stroke-miterlimit="8" stroke-dasharray="5.33412 4.00059 1.33353 4.00059" fill="none" fill-rule="evenodd"/><path d="M292.5 680.475 292.5 736.983" stroke="#FF0000" stroke-width="1.33353" stroke-miterlimit="8" stroke-dasharray="5.33412 4.00059 1.33353 4.00059" fill="none" fill-rule="evenodd"/><path d="M266.5 709.474 321.612 709.474" stroke="#FF0000" stroke-width="1.33353" stroke-miterlimit="8" stroke-dasharray="5.33412 4.00059 1.33353 4.00059" fill="none" fill-rule="evenodd"/><path d="M292.5 569.479 292.5 625.987" stroke="#FF0000" stroke-width="1.33353" stroke-miterlimit="8" stroke-dasharray="5.33412 4.00059 1.33353 4.00059" fill="none" fill-rule="evenodd"/><path d="M266.5 598.478 321.612 598.478" stroke="#FF0000" stroke-width="1.33353" stroke-miterlimit="8" stroke-dasharray="5.33412 4.00059 1.33353 4.00059" fill="none" fill-rule="evenodd"/><path d="M238.5 392.486 238.5 756.45" stroke="#5EEAD4" stroke-width="3.00044" stroke-miterlimit="8" fill="none" fill-rule="evenodd"/><path d="M0 0 0.000104998 253.548" stroke="#5EEAD4" stroke-width="3.00033" stroke-miterlimit="8" fill="none" fill-rule="evenodd" transform="matrix(1.00004 0 0 -1 349.5 758.03)"/><path d="M0 0 110.612 0.000104998" stroke="#5EEAD4" stroke-width="3.00033" stroke-miterlimit="8" fill="none" fill-rule="evenodd" transform="matrix(-1.00004 0 0 1 349.116 756.472)"/><path d="M0 0 363.992 0.0366445" stroke="#5EEAD4" stroke-width="3.00033" stroke-miterlimit="8" fill="none" fill-rule="evenodd" transform="matrix(1.00004 0 0 -1 237.5 394.522)"/><path d="M602.5 393.486 602.5 503.93" stroke="#5EEAD4" stroke-width="3.00044" stroke-miterlimit="8" fill="none" fill-rule="evenodd"/><path d="M0 0 252.401 0.000104998" stroke="#5EEAD4" stroke-width="3.00033" stroke-miterlimit="8" fill="none" fill-rule="evenodd" transform="matrix(-1.00004 0 0 1 601.911 504.481)"/><path d="M272.5 597.978C272.5 587.209 281.23 578.479 292 578.479 302.77 578.479 311.5 587.209 311.5 597.978 311.5 608.747 302.77 617.477 292 617.477 281.23 617.477 272.5 608.747 272.5 597.978Z" stroke="#2DD4BF" stroke-width="3.00044" stroke-miterlimit="8" fill="none" fill-rule="evenodd"/><path d="M273.5 708.974C273.5 698.205 282.007 689.475 292.5 689.475 302.993 689.475 311.5 698.205 311.5 708.974 311.5 719.743 302.993 728.473 292.5 728.473 282.007 728.473 273.5 719.743 273.5 708.974Z" stroke="#2DD4BF" stroke-width="3.00044" stroke-miterlimit="8" fill="none" fill-rule="evenodd"/><path d="M379.5 984.964C379.5 974.195 388.23 965.465 399 965.465 409.77 965.465 418.5 974.195 418.5 984.964 418.5 995.733 409.77 1004.46 399 1004.46 388.23 1004.46 379.5 995.733 379.5 984.964Z" stroke="#2DD4BF" stroke-width="3.00044" stroke-miterlimit="8" fill="none" fill-rule="evenodd"/><path d="M436.5 984.964C436.5 974.195 445.23 965.465 456 965.465 466.77 965.465 475.5 974.195 475.5 984.964 475.5 995.733 466.77 1004.46 456 1004.46 445.23 1004.46 436.5 995.733 436.5 984.964Z" stroke="#2DD4BF" stroke-width="3.00044" stroke-miterlimit="8" fill="none" fill-rule="evenodd"/><path d="M491.5 984.964C491.5 974.195 500.23 965.465 511 965.465 521.77 965.465 530.5 974.195 530.5 984.964 530.5 995.733 521.77 1004.46 511 1004.46 500.23 1004.46 491.5 995.733 491.5 984.964Z" stroke="#2DD4BF" stroke-width="3.00044" stroke-miterlimit="8" fill="none" fill-rule="evenodd"/><path d="M546.5 986.464C546.5 975.971 555.23 967.464 566 967.464 576.77 967.464 585.5 975.971 585.5 986.464 585.5 996.957 576.77 1005.46 566 1005.46 555.23 1005.46 546.5 996.957 546.5 986.464Z" stroke="#2DD4BF" stroke-width="3.00044" stroke-miterlimit="8" fill="none" fill-rule="evenodd"/><rect x="896.5" y="396.485" width="111" height="363.987" stroke="#5EEAD4" stroke-width="3.00033" stroke-miterlimit="8" fill="none"/><path d="M901.5 728.473 1008.06 728.473" stroke="#FFFF00" stroke-width="1.33348" stroke-miterlimit="8" stroke-dasharray="5.33392 4.00044" fill="none" fill-rule="evenodd"/><path d="M0 0 0.000104998 107.139" stroke="#FFFF00" stroke-width="1.33348" stroke-miterlimit="8" stroke-dasharray="5.33392 4.00044" fill="none" fill-rule="evenodd" transform="matrix(-1.83704e-16 -1 -1.00004 1.83697e-16 1008.64 673.475)"/><path d="M0 0 0.000104998 107.139" stroke="#FFFF00" stroke-width="1.33348" stroke-miterlimit="8" stroke-dasharray="5.33392 4.00044" fill="none" fill-rule="evenodd" transform="matrix(-1.83704e-16 -1 -1.00004 1.83697e-16 1008.64 688.475)"/><path d="M0 0 0.000104998 107.139" stroke="#FFFF00" stroke-width="1.33348" stroke-miterlimit="8" stroke-dasharray="5.33392 4.00044" fill="none" fill-rule="evenodd" transform="matrix(-1.83704e-16 -1 -1.00004 1.83697e-16 1007.64 635.477)"/><path d="M0 0 0.000104998 107.139" stroke="#FFFF00" stroke-width="1.33348" stroke-miterlimit="8" stroke-dasharray="5.33392 4.00044" fill="none" fill-rule="evenodd" transform="matrix(-1.83704e-16 -1 -1.00004 1.83697e-16 1008.64 617.477)"/><path d="M0 0 0.000104998 107.139" stroke="#FFFF00" stroke-width="1.33348" stroke-miterlimit="8" stroke-dasharray="5.33392 4.00044" fill="none" fill-rule="evenodd" transform="matrix(-1.83704e-16 -1 -1.00004 1.83697e-16 1008.64 579.479)"/><path d="M0 0 0.000104998 107.139" stroke="#FFFF00" stroke-width="1.33348" stroke-miterlimit="8" stroke-dasharray="5.33392 4.00044" fill="none" fill-rule="evenodd" transform="matrix(-1.83704e-16 -1 -1.00004 1.83697e-16 1008.64 563.479)"/><path d="M0 0 0.000104998 107.139" stroke="#FFFF00" stroke-width="1.33348" stroke-miterlimit="8" stroke-dasharray="5.33392 4.00044" fill="none" fill-rule="evenodd" transform="matrix(-1.83704e-16 -1 -1.00004 1.83697e-16 1008.64 524.481)"/><path d="M870.5 708.474 1037.18 708.474" stroke="#FF0000" stroke-width="1.33348" stroke-miterlimit="8" stroke-dasharray="10.6678 4.00044 1.33348 4.00044" fill="none" fill-rule="evenodd"/><path d="M870.5 652.476 1037.18 652.476" stroke="#FF0000" stroke-width="1.33348" stroke-miterlimit="8" stroke-dasharray="10.6678 4.00044 1.33348 4.00044" fill="none" fill-rule="evenodd"/><path d="M870.5 597.478 1037.18 597.478" stroke="#FF0000" stroke-width="1.33348" stroke-miterlimit="8" stroke-dasharray="10.6678 4.00044 1.33348 4.00044" fill="none" fill-rule="evenodd"/><path d="M870.5 543.48 1037.18 543.48" stroke="#FF0000" stroke-width="1.33348" stroke-miterlimit="8" stroke-dasharray="10.6678 4.00044 1.33348 4.00044" fill="none" fill-rule="evenodd"/><path d="M0 0 0.000104998 110.123" stroke="#FFFF00" stroke-width="1.33348" stroke-miterlimit="8" stroke-dasharray="5.33392 4.00044" fill="none" fill-rule="evenodd" transform="matrix(6.12346e-17 1 1.00004 -6.12323e-17 897.5 509.481)"/><path d="M0 0 0.000104998 107.139" stroke="#FFFF00" stroke-width="1.33348" stroke-miterlimit="8" stroke-dasharray="5.33392 4.00044" fill="none" fill-rule="evenodd" transform="matrix(-1.00004 1.22465e-16 1.22469e-16 1 969.5 399.485)"/><path d="M0 0 0.000104998 107.139" stroke="#FFFF00" stroke-width="1.33348" stroke-miterlimit="8" stroke-dasharray="5.33392 4.00044" fill="none" fill-rule="evenodd" transform="matrix(-1.00004 1.22465e-16 1.22469e-16 1 929.5 399.485)"/><path d="M949.5 537.156 949.5 370.486" stroke="#FF0000" stroke-width="1.33353" stroke-miterlimit="8" stroke-dasharray="10.6682 4.00059 1.33353 4.00059" fill="none" fill-rule="evenodd"/><path d="M0 0 0.000104998 107.139" stroke="#FFFF00" stroke-width="1.33348" stroke-miterlimit="8" stroke-dasharray="5.33392 4.00044" fill="none" fill-rule="evenodd" transform="matrix(1.00004 0 0 -1 277.5 1039.6)"/><path d="M0 0 0.000104998 107.139" stroke="#FFFF00" stroke-width="1.33348" stroke-miterlimit="8" stroke-dasharray="5.33392 4.00044" fill="none" fill-rule="evenodd" transform="matrix(1.00004 0 0 -1 307.5 1039.6)"/><path d="M292.5 901.467 292.5 1068.14" stroke="#FF0000" stroke-width="1.33353" stroke-miterlimit="8" stroke-dasharray="10.6682 4.00059 1.33353 4.00059" fill="none" fill-rule="evenodd"/><path d="M0 0 0.000104998 107.139" stroke="#3B21FF" stroke-width="1.33348" stroke-miterlimit="8" stroke-dasharray="5.33392 4.00044" fill="none" fill-rule="evenodd" transform="matrix(1.00004 0 0 -1 271.5 1039.6)"/><path d="M0 0 0.000104998 107.139" stroke="#3B21FF" stroke-width="1.33348" stroke-miterlimit="8" stroke-dasharray="5.33392 4.00044" fill="none" fill-rule="evenodd" transform="matrix(1.00004 0 0 -1 312.5 1037.6)"/><path d="M292.5 624.477 292.5 680.985" stroke="#FF0000" stroke-width="1.33353" stroke-miterlimit="8" stroke-dasharray="5.33412 4.00059 1.33353 4.00059" fill="none" fill-rule="evenodd"/><path d="M266.5 652.476 321.612 652.476" stroke="#FF0000" stroke-width="1.33353" stroke-miterlimit="8" stroke-dasharray="5.33412 4.00059 1.33353 4.00059" fill="none" fill-rule="evenodd"/><path d="M292.5 514.481 292.5 570.989" stroke="#FF0000" stroke-width="1.33353" stroke-miterlimit="8" stroke-dasharray="5.33412 4.00059 1.33353 4.00059" fill="none" fill-rule="evenodd"/><path d="M266.5 542.48 321.612 542.48" stroke="#FF0000" stroke-width="1.33353" stroke-miterlimit="8" stroke-dasharray="5.33412 4.00059 1.33353 4.00059" fill="none" fill-rule="evenodd"/><path d="M275.5 650.976C275.5 642.416 282.44 635.477 291 635.477 299.56 635.477 306.5 642.416 306.5 650.976 306.5 659.536 299.56 666.475 291 666.475 282.44 666.475 275.5 659.536 275.5 650.976Z" stroke="#2DD4BF" stroke-width="1.33353" stroke-miterlimit="8" fill="none" fill-rule="evenodd"/><path d="M270 648.976C270 637.931 278.954 628.977 290 628.977 301.046 628.977 310 637.931 310 648.976 310 660.021 301.046 668.975 290 668.975 278.954 668.975 270 660.021 270 648.976Z" stroke="#3B21FF" stroke-width="2.00029" stroke-miterlimit="8" fill="none" fill-rule="evenodd"/><path d="M276.5 540.98C276.5 532.42 283.44 525.481 292 525.481 300.56 525.481 307.5 532.42 307.5 540.98 307.5 549.54 300.56 556.479 292 556.479 283.44 556.479 276.5 549.54 276.5 540.98Z" stroke="#2DD4BF" stroke-width="1.33353" stroke-miterlimit="8" fill="none" fill-rule="evenodd"/><path d="M271 539.98C271 528.935 279.954 519.981 291 519.981 302.046 519.981 311 528.935 311 539.98 311 551.025 302.046 559.979 291 559.979 279.954 559.979 271 551.025 271 539.98Z" stroke="#3B21FF" stroke-width="2.00029" stroke-miterlimit="8" fill="none" fill-rule="evenodd"/></g></svg>